<svg data-v-1084b650="" xmlns="http://www.w3.org/2000/svg" viewBox="0 0 300 300"><!----> <!----> <rect data-v-1084b650="" fill="#EFF5E9" x="0" y="0" width="300px" height="300px" class="logo-background-square"></rect> <!----> <g data-v-1084b650="" id="95ad5f9c-337d-9e70-d86e-886183d3ed9f" fill="#213210" transform="matrix(1.6,0,0,1.6,85.66654440164565,136.71200742721558)"><path d="M7.87 8.13L7.87 8.13L7.87 8.13Q8.69 9.11 8.69 10.33L8.69 10.33L8.69 10.33Q8.67 11.73 7.74 12.68L7.74 12.68L7.74 12.68Q6.80 13.62 5.47 13.62L5.47 13.62L1.79 13.62L1.79 13.62Q0.81 13.62 0.64 13.09L0.64 13.09L0.64 13.09Q0.56 12.85 0.56 12.36L0.56 12.36L0.56 4.59L0.56 4.59Q0.56 4.26 0.58 4.10L0.58 4.10L0.58 4.10Q0.60 3.95 0.71 3.74L0.71 3.74L0.71 3.74Q0.91 3.36 1.81 3.36L1.81 3.36L5.33 3.36L5.33 3.36Q6.62 3.36 7.49 4.26L7.49 4.26L7.49 4.26Q8.40 5.17 8.40 6.44L8.40 6.44L8.40 6.44Q8.40 7.36 7.87 8.13ZM6.22 10.19L6.22 10.19L6.22 10.19Q6.22 9.86 6.14 9.66L6.14 9.66L6.14 9.66Q6.06 9.46 5.88 9.38L5.88 9.38L5.88 9.38Q5.60 9.27 5.10 9.27L5.10 9.27L5.10 9.27Q4.59 9.27 4.34 9.07L4.34 9.07L4.34 9.07Q4.09 8.88 4.09 8.27L4.09 8.27L4.09 8.27Q4.09 7.66 4.35 7.46L4.35 7.46L4.35 7.46Q4.61 7.27 5.21 7.27L5.21 7.27L5.21 7.27Q5.77 7.27 5.88 6.97L5.88 6.97L5.88 6.97Q5.92 6.82 5.92 6.47L5.92 6.47L5.92 6.47Q5.92 6.12 5.69 5.98L5.69 5.98L5.69 5.98Q5.46 5.84 5.00 5.84L5.00 5.84L3.04 5.84L3.04 11.14L5.33 11.14L5.33 11.14Q6.22 11.14 6.22 10.19ZM16.72 9.07L16.72 9.07L16.72 9.07Q16.72 9.93 16.29 10.34L16.29 10.34L16.29 10.34Q15.86 10.75 15.34 10.75L15.34 10.75L12.03 10.75L12.03 10.75Q12.03 11.14 12.49 11.41L12.49 11.41L12.49 11.41Q12.95 11.68 13.41 11.68L13.41 11.68L13.41 11.68Q14.22 11.68 14.69 11.51L14.69 11.51L14.84 11.45L14.84 11.45Q15.18 11.30 15.40 11.30L15.40 11.30L15.40 11.30Q15.85 11.30 16.17 11.93L16.17 11.93L16.17 11.93Q16.35 12.31 16.35 12.57L16.35 12.57L16.35 12.57Q16.35 13.82 13.37 13.82L13.37 13.82L13.37 13.82Q12.33 13.82 11.53 13.46L11.53 13.46L11.53 13.46Q10.72 13.10 10.28 12.52L10.28 12.52L10.28 12.52Q9.39 11.38 9.39 9.98L9.39 9.98L9.39 9.98Q9.39 8.22 10.54 7.16L10.54 7.16L10.54 7.16Q11.68 6.10 13.38 6.10L13.38 6.10L13.38 6.10Q15.33 6.10 16.24 7.48L16.24 7.48L16.24 7.48Q16.72 8.20 16.72 9.07ZM12.00 9.48L13.76 9.48L13.76 9.48Q14.29 9.48 14.29 9.03L14.29 9.03L14.29 9.03Q14.29 8.71 14.05 8.51L14.05 8.51L14.05 8.51Q13.80 8.32 13.35 8.32L13.35 8.32L13.35 8.32Q12.89 8.32 12.45 8.69L12.45 8.69L12.45 8.69Q12.00 9.06 12.00 9.48L12.00 9.48ZM24.74 9.07L24.74 9.07L24.74 9.07Q24.74 9.93 24.31 10.34L24.31 10.34L24.31 10.34Q23.88 10.75 23.37 10.75L23.37 10.75L20.05 10.75L20.05 10.75Q20.05 11.14 20.51 11.41L20.51 11.41L20.51 11.41Q20.97 11.68 21.43 11.68L21.43 11.68L21.43 11.68Q22.25 11.68 22.71 11.51L22.71 11.51L22.86 11.45L22.86 11.45Q23.20 11.30 23.42 11.30L23.42 11.30L23.42 11.30Q23.87 11.30 24.19 11.93L24.19 11.93L24.19 11.93Q24.37 12.31 24.37 12.57L24.37 12.57L24.37 12.57Q24.37 13.82 21.39 13.82L21.39 13.82L21.39 13.82Q20.36 13.82 19.55 13.46L19.55 13.46L19.55 13.46Q18.75 13.10 18.30 12.52L18.30 12.52L18.30 12.52Q17.42 11.38 17.42 9.98L17.42 9.98L17.42 9.98Q17.42 8.22 18.56 7.16L18.56 7.16L18.56 7.16Q19.70 6.10 21.41 6.10L21.41 6.10L21.41 6.10Q23.35 6.10 24.26 7.48L24.26 7.48L24.26 7.48Q24.74 8.20 24.74 9.07ZM20.02 9.48L21.78 9.48L21.78 9.48Q22.32 9.48 22.32 9.03L22.32 9.03L22.32 9.03Q22.32 8.71 22.07 8.51L22.07 8.51L22.07 8.51Q21.83 8.32 21.37 8.32L21.37 8.32L21.37 8.32Q20.92 8.32 20.47 8.69L20.47 8.69L20.47 8.69Q20.02 9.06 20.02 9.48L20.02 9.48ZM41.47 3.43L41.47 3.43L41.47 3.43Q42.41 3.77 42.41 4.33L42.41 4.33L42.41 4.33Q42.41 4.51 42.24 5.01L42.24 5.01L39.55 12.78L39.55 12.78Q39.52 12.88 39.45 13.02L39.45 13.02L39.45 13.02Q39.38 13.16 39.08 13.39L39.08 13.39L39.08 13.39Q38.78 13.62 38.37 13.62L38.37 13.62L38.37 13.62Q37.95 13.62 37.65 13.39L37.65 13.39L37.65 13.39Q37.35 13.16 37.25 12.94L37.25 12.94L35.62 8.11L35.62 8.11Q34.06 12.70 34.03 12.78L34.03 12.78L34.03 12.78Q34.01 12.87 33.91 13.02L33.91 13.02L33.91 13.02Q33.81 13.17 33.68 13.30L33.68 13.30L33.68 13.30Q33.36 13.62 32.91 13.62L32.91 13.62L32.91 13.62Q32.47 13.62 32.18 13.41L32.18 13.41L32.18 13.41Q31.89 13.20 31.79 12.99L31.79 12.99L31.70 12.78L28.99 5.01L28.99 5.01Q28.84 4.55 28.84 4.33L28.84 4.33L28.84 4.33Q28.84 3.77 29.78 3.44L29.78 3.44L29.78 3.44Q30.18 3.30 30.51 3.30L30.51 3.30L30.51 3.30Q30.84 3.30 31.02 3.53L31.02 3.53L31.02 3.53Q31.19 3.75 31.33 4.21L31.33 4.21L32.87 8.89L34.40 4.28L34.40 4.28Q34.59 3.70 35.11 3.47L35.11 3.47L35.11 3.47Q35.34 3.37 35.69 3.37L35.69 3.37L35.69 3.37Q36.05 3.37 36.36 3.61L36.36 3.61L36.36 3.61Q36.67 3.84 36.75 4.06L36.75 4.06L38.36 8.92L39.90 4.21L39.90 4.21Q40.01 3.89 40.08 3.74L40.08 3.74L40.08 3.74Q40.15 3.58 40.34 3.44L40.34 3.44L40.34 3.44Q40.53 3.29 40.81 3.29L40.81 3.29L40.81 3.29Q41.09 3.29 41.47 3.43ZM49.31 9.07L49.31 9.07L49.31 9.07Q49.31 9.93 48.88 10.34L48.88 10.34L48.88 10.34Q48.45 10.75 47.94 10.75L47.94 10.75L44.62 10.75L44.62 10.75Q44.62 11.14 45.08 11.41L45.08 11.41L45.08 11.41Q45.54 11.68 46.00 11.68L46.00 11.68L46.00 11.68Q46.82 11.68 47.28 11.51L47.28 11.51L47.43 11.45L47.43 11.45Q47.77 11.30 47.99 11.30L47.99 11.30L47.99 11.30Q48.44 11.30 48.76 11.93L48.76 11.93L48.76 11.93Q48.94 12.31 48.94 12.57L48.94 12.57L48.94 12.57Q48.94 13.82 45.96 13.82L45.96 13.82L45.96 13.82Q44.93 13.82 44.12 13.46L44.12 13.46L44.12 13.46Q43.32 13.10 42.87 12.52L42.87 12.52L42.87 12.52Q41.99 11.38 41.99 9.98L41.99 9.98L41.99 9.98Q41.99 8.22 43.13 7.16L43.13 7.16L43.13 7.16Q44.27 6.10 45.98 6.10L45.98 6.10L45.98 6.10Q47.92 6.10 48.83 7.48L48.83 7.48L48.83 7.48Q49.31 8.20 49.31 9.07ZM44.59 9.48L46.35 9.48L46.35 9.48Q46.89 9.48 46.89 9.03L46.89 9.03L46.89 9.03Q46.89 8.71 46.64 8.51L46.64 8.51L46.64 8.51Q46.40 8.32 45.94 8.32L45.94 8.32L45.94 8.32Q45.49 8.32 45.04 8.69L45.04 8.69L45.04 8.69Q44.59 9.06 44.59 9.48L44.59 9.48ZM50.22 10.68L50.22 4.02L50.22 4.02Q50.22 3.70 50.24 3.54L50.24 3.54L50.24 3.54Q50.26 3.37 50.36 3.16L50.36 3.16L50.36 3.16Q50.55 2.79 51.45 2.79L51.45 2.79L51.45 2.79Q52.30 2.79 52.51 3.16L52.51 3.16L52.51 3.16Q52.63 3.37 52.65 3.54L52.65 3.54L52.65 3.54Q52.67 3.71 52.67 4.03L52.67 4.03L52.67 10.51L52.67 10.51Q52.67 11.02 52.75 11.15L52.75 11.15L52.75 11.15Q52.84 11.28 53.12 11.28L53.12 11.28L53.12 11.28Q53.41 11.28 53.51 11.31L53.51 11.31L53.51 11.31Q53.61 11.33 53.75 11.42L53.75 11.42L53.75 11.42Q54.03 11.61 54.03 12.42L54.03 12.42L54.03 12.42Q54.03 13.30 53.75 13.50L53.75 13.50L53.75 13.50Q53.38 13.75 52.01 13.58L52.01 13.58L52.01 13.58Q50.93 13.44 50.61 12.87L50.61 12.87L50.61 12.87Q50.22 12.18 50.22 10.68L50.22 10.68ZM54.80 10.68L54.80 4.02L54.80 4.02Q54.80 3.70 54.82 3.54L54.82 3.54L54.82 3.54Q54.84 3.37 54.94 3.16L54.94 3.16L54.94 3.16Q55.13 2.79 56.03 2.79L56.03 2.79L56.03 2.79Q56.88 2.79 57.09 3.16L57.09 3.16L57.09 3.16Q57.20 3.37 57.23 3.54L57.23 3.54L57.23 3.54Q57.25 3.71 57.25 4.03L57.25 4.03L57.25 10.51L57.25 10.51Q57.25 11.02 57.33 11.15L57.33 11.15L57.33 11.15Q57.41 11.28 57.70 11.28L57.70 11.28L57.70 11.28Q57.99 11.28 58.09 11.31L58.09 11.31L58.09 11.31Q58.18 11.33 58.32 11.42L58.32 11.42L58.32 11.42Q58.60 11.61 58.60 12.42L58.60 12.42L58.60 12.42Q58.60 13.30 58.32 13.50L58.32 13.50L58.32 13.50Q57.96 13.75 56.59 13.58L56.59 13.58L56.59 13.58Q55.51 13.44 55.19 12.87L55.19 12.87L55.19 12.87Q54.80 12.18 54.80 10.68L54.80 10.68ZM68.15 3.37L68.15 3.37L68.15 3.37Q68.70 3.37 68.96 3.47L68.96 3.47L68.96 3.47Q69.22 3.56 69.33 3.77L69.33 3.77L69.33 3.77Q69.48 4.09 69.48 4.63L69.48 4.63L69.48 10.05L69.48 10.05Q69.48 11.52 68.42 12.65L68.42 12.65L68.42 12.65Q67.35 13.78 65.70 13.78L65.70 13.78L65.70 13.78Q64.78 13.78 64.06 13.37L64.06 13.37L64.06 13.37Q63.42 13.02 63.17 12.74L63.17 12.74L63.06 12.63L63.06 12.63Q62.57 12.11 62.57 11.74L62.57 11.74L62.57 11.74Q62.57 11.37 63.06 10.86L63.06 10.86L63.06 10.86Q63.55 10.36 63.92 10.36L63.92 10.36L63.92 10.36Q64.30 10.36 64.76 10.82L64.76 10.82L64.76 10.82Q65.23 11.28 65.77 11.28L65.77 11.28L65.77 11.28Q66.30 11.28 66.65 10.92L66.65 10.92L66.65 10.92Q67.00 10.56 67.00 9.95L67.00 9.95L67.00 4.72L67.00 4.72Q67.00 3.88 67.28 3.64L67.28 3.64L67.28 3.64Q67.61 3.37 68.15 3.37ZM70.39 9.95L70.39 9.95Q70.39 8.27 71.57 7.18L71.57 7.18L71.57 7.18Q72.74 6.09 74.26 6.09L74.26 6.09L74.26 6.09Q75.77 6.09 76.93 7.18L76.93 7.18L76.93 7.18Q78.09 8.26 78.09 9.94L78.09 9.94L78.09 9.94Q78.09 11.10 77.49 12.01L77.49 12.01L77.49 12.01Q76.89 12.91 76.03 13.34L76.03 13.34L76.03 13.34Q75.17 13.76 74.24 13.76L74.24 13.76L74.24 13.76Q73.32 13.76 72.45 13.31L72.45 13.31L72.45 13.31Q71.58 12.85 70.99 11.96L70.99 11.96L70.99 11.96Q70.39 11.07 70.39 9.95L70.39 9.95ZM73.32 10.96L73.32 10.96L73.32 10.96Q73.77 11.30 74.23 11.30L74.23 11.30L74.23 11.30Q74.69 11.30 75.15 10.95L75.15 10.95L75.15 10.95Q75.61 10.60 75.61 9.91L75.61 9.91L75.61 9.91Q75.61 9.23 75.18 8.89L75.18 8.89L75.18 8.89Q74.75 8.55 74.24 8.55L74.24 8.55L74.24 8.55Q73.74 8.55 73.30 8.90L73.30 8.90L73.30 8.90Q72.87 9.25 72.87 9.93L72.87 9.93L72.87 9.93Q72.87 10.61 73.32 10.96ZM82.28 13.61L82.28 13.61L82.28 13.61Q80.86 13.61 79.93 12.54L79.93 12.54L79.93 12.54Q79.00 11.47 79.00 9.93L79.00 9.93L79.00 7.48L79.00 7.48Q79.00 7.14 79.02 6.99L79.02 6.99L79.02 6.99Q79.04 6.83 79.14 6.62L79.14 6.62L79.14 6.62Q79.34 6.24 80.23 6.24L80.23 6.24L80.23 6.24Q81.21 6.24 81.38 6.78L81.38 6.78L81.38 6.78Q81.47 7.00 81.47 7.49L81.47 7.49L81.47 9.94L81.47 9.94Q81.47 10.51 81.80 10.84L81.80 10.84L81.80 10.84Q82.12 11.16 82.68 11.16L82.68 11.16L82.68 11.16Q83.23 11.16 83.57 10.82L83.57 10.82L83.57 10.82Q83.92 10.49 83.92 9.94L83.92 9.94L83.92 7.46L83.92 7.46Q83.92 7.14 83.94 6.98L83.94 6.98L83.94 6.98Q83.96 6.82 84.07 6.61L84.07 6.61L84.07 6.61Q84.25 6.24 85.15 6.24L85.15 6.24L85.15 6.24Q86.03 6.24 86.23 6.62L86.23 6.62L86.23 6.62Q86.32 6.83 86.35 6.99L86.35 6.99L86.35 6.99Q86.37 7.15 86.37 7.48L86.37 7.48L86.37 12.43L86.37 12.43Q86.37 12.74 86.35 12.90L86.35 12.90L86.35 12.90Q86.32 13.06 86.21 13.26L86.21 13.26L86.21 13.26Q86.00 13.62 85.13 13.62L85.13 13.62L85.13 13.62Q84.28 13.62 84.08 13.29L84.08 13.29L84.08 13.29Q83.94 13.05 83.94 12.71L83.94 12.71L83.94 12.71Q83.89 12.81 83.69 12.99L83.69 12.99L83.69 12.99Q83.50 13.17 83.31 13.30L83.31 13.30L83.31 13.30Q82.84 13.61 82.28 13.61ZM92.50 6.34L92.50 6.34L92.50 6.34Q92.76 6.43 92.94 6.63L92.94 6.63L92.94 6.63Q93.11 6.83 93.11 7.28L93.11 7.28L93.11 7.28Q93.11 7.73 92.85 8.26L92.85 8.26L92.85 8.26Q92.58 8.79 92.08 8.79L92.08 8.79L92.08 8.79Q91.83 8.79 91.59 8.68L91.59 8.68L91.59 8.68Q91.36 8.57 90.99 8.57L90.99 8.57L90.99 8.57Q90.61 8.57 90.28 8.83L90.28 8.83L90.28 8.83Q89.95 9.10 89.95 9.48L89.95 9.48L89.95 12.42L89.95 12.42Q89.95 12.74 89.93 12.90L89.93 12.90L89.93 12.90Q89.91 13.06 89.80 13.27L89.80 13.27L89.80 13.27Q89.59 13.64 88.70 13.64L88.70 13.64L88.70 13.64Q88.03 13.64 87.74 13.40L87.74 13.40L87.74 13.40Q87.51 13.20 87.49 12.80L87.49 12.80L87.49 12.80Q87.49 12.66 87.49 12.39L87.49 12.39L87.49 7.48L87.49 7.48Q87.49 7.15 87.51 6.99L87.51 6.99L87.51 6.99Q87.53 6.83 87.63 6.64L87.63 6.64L87.63 6.64Q87.82 6.26 88.72 6.26L88.72 6.26L88.72 6.26Q89.56 6.26 89.77 6.58L89.77 6.58L89.77 6.58Q89.92 6.80 89.92 7.04L89.92 7.04L89.92 7.04Q89.99 6.94 90.13 6.80L90.13 6.80L90.13 6.80Q90.26 6.66 90.69 6.43L90.69 6.43L90.69 6.43Q91.13 6.19 91.45 6.19L91.45 6.19L91.45 6.19Q91.78 6.19 92.01 6.22L92.01 6.22L92.01 6.22Q92.23 6.26 92.50 6.34ZM97.99 6.26L97.99 6.26L97.99 6.26Q99.39 6.26 100.32 7.33L100.32 7.33L100.32 7.33Q101.25 8.40 101.25 9.94L101.25 9.94L101.25 12.40L101.25 12.40Q101.25 12.73 101.23 12.89L101.23 12.89L101.23 12.89Q101.21 13.05 101.11 13.24L101.11 13.24L101.11 13.24Q100.91 13.62 100.02 13.62L100.02 13.62L100.02 13.62Q99.02 13.62 98.87 13.10L98.87 13.10L98.87 13.10Q98.78 12.87 98.78 12.39L98.78 12.39L98.78 9.93L98.78 9.93Q98.78 9.35 98.45 9.03L98.45 9.03L98.45 9.03Q98.13 8.71 97.57 8.71L97.57 8.71L97.57 8.71Q97.02 8.71 96.68 9.04L96.68 9.04L96.68 9.04Q96.33 9.38 96.33 9.93L96.33 9.93L96.33 12.40L96.33 12.40Q96.33 12.73 96.31 12.89L96.31 12.89L96.31 12.89Q96.29 13.05 96.18 13.24L96.18 13.24L96.18 13.24Q96.00 13.62 95.10 13.62L95.10 13.62L95.10 13.62Q94.22 13.62 94.02 13.24L94.02 13.24L94.02 13.24Q93.93 13.03 93.91 12.87L93.91 12.87L93.91 12.87Q93.88 12.71 93.88 12.39L93.88 12.39L93.88 7.43L93.88 7.43Q93.88 7.13 93.91 6.97L93.91 6.97L93.91 6.97Q93.93 6.80 94.04 6.61L94.04 6.61L94.04 6.61Q94.23 6.26 95.12 6.26L95.12 6.26L95.12 6.26Q95.97 6.26 96.17 6.58L96.17 6.58L96.17 6.58Q96.31 6.82 96.31 7.15L96.31 7.15L96.31 7.15Q96.36 7.06 96.56 6.87L96.56 6.87L96.56 6.87Q96.75 6.69 96.94 6.58L96.94 6.58L96.94 6.58Q97.41 6.26 97.99 6.26ZM107.16 7.04L107.16 7.04L107.16 7.04Q107.24 6.26 108.26 6.26L108.26 6.26L108.26 6.26Q108.81 6.26 109.07 6.34L109.07 6.34L109.07 6.34Q109.34 6.43 109.44 6.64L109.44 6.64L109.44 6.64Q109.55 6.85 109.57 7.01L109.57 7.01L109.57 7.01Q109.59 7.17 109.59 7.49L109.59 7.49L109.59 12.39L109.59 12.39Q109.59 12.71 109.57 12.87L109.57 12.87L109.57 12.87Q109.55 13.03 109.45 13.24L109.45 13.24L109.45 13.24Q109.26 13.61 108.49 13.61L108.49 13.61L108.49 13.61Q107.73 13.61 107.47 13.42L107.47 13.42L107.47 13.42Q107.21 13.23 107.17 12.87L107.17 12.87L107.17 12.87Q106.65 13.61 105.44 13.61L105.44 13.61L105.44 13.61Q104.23 13.61 103.19 12.50L103.19 12.50L103.19 12.50Q102.16 11.40 102.16 9.93L102.16 9.93L102.16 9.93Q102.16 8.47 103.20 7.37L103.20 7.37L103.20 7.37Q104.24 6.27 105.49 6.27L105.49 6.27L105.49 6.27Q105.97 6.27 106.36 6.44L106.36 6.44L106.36 6.44Q106.75 6.61 106.90 6.76L106.90 6.76L106.90 6.76Q107.06 6.90 107.16 7.04ZM104.61 9.95L104.61 9.95L104.61 9.95Q104.61 10.42 104.97 10.79L104.97 10.79L104.97 10.79Q105.34 11.16 105.85 11.16L105.85 11.16L105.85 11.16Q106.37 11.16 106.71 10.78L106.71 10.78L106.71 10.78Q107.06 10.40 107.06 9.95L107.06 9.95L107.06 9.95Q107.06 9.49 106.73 9.10L106.73 9.10L106.73 9.10Q106.40 8.71 105.85 8.71L105.85 8.71L105.85 8.71Q105.29 8.71 104.95 9.10L104.95 9.10L104.95 9.10Q104.61 9.49 104.61 9.95ZM110.71 10.68L110.71 4.02L110.71 4.02Q110.71 3.70 110.73 3.54L110.73 3.54L110.73 3.54Q110.75 3.37 110.85 3.16L110.85 3.16L110.85 3.16Q111.05 2.79 111.94 2.79L111.94 2.79L111.94 2.79Q112.80 2.79 113.01 3.16L113.01 3.16L113.01 3.16Q113.12 3.37 113.14 3.54L113.14 3.54L113.14 3.54Q113.16 3.71 113.16 4.03L113.16 4.03L113.16 10.51L113.16 10.51Q113.16 11.02 113.25 11.15L113.25 11.15L113.25 11.15Q113.33 11.28 113.62 11.28L113.62 11.28L113.62 11.28Q113.90 11.28 114.00 11.31L114.00 11.31L114.00 11.31Q114.10 11.33 114.24 11.42L114.24 11.42L114.24 11.42Q114.52 11.61 114.52 12.42L114.52 12.42L114.52 12.42Q114.52 13.30 114.24 13.50L114.24 13.50L114.24 13.50Q113.88 13.75 112.50 13.58L112.50 13.58L112.50 13.58Q111.43 13.44 111.10 12.87L111.10 12.87L111.10 12.87Q110.71 12.18 110.71 10.68L110.71 10.68Z"></path></g> <linearGradient data-v-1084b650="" gradientTransform="rotate(25)" id="d79ad498-b31c-cf8d-5782-ac16cde8fcab" x1="0%" y1="0%" x2="100%" y2="0%"><stop data-v-1084b650="" offset="0%" style="stop-color: rgb(102, 108, 53); stop-opacity: 1;"></stop> <stop data-v-1084b650="" offset="100%" style="stop-color: rgb(119, 214, 54); stop-opacity: 1;"></stop></linearGradient> <g data-v-1084b650="" id="e910f394-951f-6376-fc22-424d126bbd1e" fill="url(#d79ad498-b31c-cf8d-5782-ac16cde8fcab)" stroke="none" transform="matrix(0.10165263637130684,0,0,0.10165263637130684,39.26721862948618,135.14403919981106)"><svg xmlns="http://www.w3.org/2000/svg" viewBox="0 0 100 100"><g fill-rule="evenodd" clip-rule="evenodd"><path d="M37.094 26.532c8.682-.118 11.859-5.741 13.2-13.2-.266-1.109-1.714-1.036-1.237-2.887.682-.602 1.151-.876 2.269-.619 1.038 1.202.298 3.145 0 4.537-1.634 7.623-5.793 14.504-16.088 12.994 1.448 2.671 2.802 4.979 2.888 8.662.149 6.431-3.228 12.097-7.219 16.087-3.96 3.96-9.394 7.381-16.087 7.219-7.438-.18-13.041-5.266-13.2-13.2-.116-5.743 2.69-11.107 5.568-14.437 4.428-5.124 14.506-11.797 23.719-7.425.897.426 2.227 1.771 3.3 1.856 2.058.164 5.426-2.358 6.806-4.125 2.578-3.301 2.743-8.61 1.444-13.2-.501-.764-1.864-.376-2.063-1.65-.132-.846.897-2.354 2.269-1.65.895.459 1.869 6.592 1.856 8.869-.035 6.218-3.68 10.224-7.425 12.169zm-18.15 5.775c-1.15 4.996 6.015 4.675 5.775.619-.109-1.847-1.178-2.952-3.506-2.475-1.442.295-2.13 1.247-2.269 1.856zM95.05 27.769c-14.16-9.307-38.764-5.076-45.994 7.219.499-2.403 1.872-4.779 3.299-7.012 4.317-6.751 11.514-14.115 21.656-14.85 10.853-.787 17.743 6.729 21.039 14.643z"></path><path d="M87.418 71.494c-.114-10.389-5.282-17.452-11.344-23.513-6.513-6.513-16.751-12.137-27.843-9.075-.87.035.003-.317 0-.619 7.003-5.714 15.332-11.902 27.225-11.962 12.203-.063 21.792 7.351 22.688 18.975.818 10.63-4.802 20.842-10.726 26.194z"></path><path d="M52.975 42.619c.771.125-.314.821-.619 1.237-5.28 7.235-11.419 14.906-18.768 20.213-.777-1.768-.838-4.25-.825-6.807 4.137-3.563 7.602-7.798 9.281-13.818 2.92-.928 7.369-1.823 10.931-.825zM60.193 44.682c2.78 1.139 5.157 2.68 7.425 4.331-7.716 10.983-16.427 20.973-27.637 28.463-1.271-1.548-2.507-3.131-3.3-5.156 9.929-7.122 18.994-15.107 23.512-27.638zM72.568 53.551c2.364 1.966 3.934 4.729 5.775 7.218-7.53 10.414-15.438 20.449-26.606 27.226-2.238-1.406-4.26-3.027-6.394-4.538 11.851-7.193 21.912-16.176 27.225-29.906zM81.644 69.638c1.15 1.996 1.231 5.982.825 8.869-1.061 1.136-2.343 1.897-3.507 2.887-3.222 2.74-6.344 5.979-8.25 10.313-2.721.574-6.337.52-9.075 0 7.964-6.062 15.16-12.891 20.007-22.069zM83.293 83.25c-.2 1.473-1.36 5.563 0 7.425-2.467-.196-5.818-.074-7.837 1.237 2.114-3.385 4.916-6.083 7.837-8.662z"></path></g></svg></g></svg>