<svg data-v-1084b650="" xmlns="http://www.w3.org/2000/svg" viewBox="0 0 300 300"><!----> <!----> <rect data-v-1084b650="" fill="#EFF5E9" x="0" y="0" width="300px" height="300px" class="logo-background-square"></rect> <!----> <linearGradient data-v-1084b650="" gradientTransform="rotate(25)" id="8a0eea3e-777a-71ab-6fcf-0b41e79e5a86" x1="0%" y1="0%" x2="100%" y2="0%"><stop data-v-1084b650="" offset="0%" style="stop-color: rgb(102, 108, 53); stop-opacity: 1;"></stop> <stop data-v-1084b650="" offset="100%" style="stop-color: rgb(119, 214, 54); stop-opacity: 1;"></stop></linearGradient> <g data-v-1084b650="" id="9c56be26-050c-15fa-ef02-2bbc070f1ddf" fill="url(#8a0eea3e-777a-71ab-6fcf-0b41e79e5a86)" stroke="none" transform="matrix(0.7499999999999998,0,0,0.7499999999999998,37.67985606193545,40.39172029495242)"><svg xmlns="http://www.w3.org/2000/svg" viewBox="0 0 100 100"><g fill-rule="evenodd" clip-rule="evenodd"><path d="M37.094 26.532c8.682-.118 11.859-5.741 13.2-13.2-.266-1.109-1.714-1.036-1.237-2.887.682-.602 1.151-.876 2.269-.619 1.038 1.202.298 3.145 0 4.537-1.634 7.623-5.793 14.504-16.088 12.994 1.448 2.671 2.802 4.979 2.888 8.662.149 6.431-3.228 12.097-7.219 16.087-3.96 3.96-9.394 7.381-16.087 7.219-7.438-.18-13.041-5.266-13.2-13.2-.116-5.743 2.69-11.107 5.568-14.437 4.428-5.124 14.506-11.797 23.719-7.425.897.426 2.227 1.771 3.3 1.856 2.058.164 5.426-2.358 6.806-4.125 2.578-3.301 2.743-8.61 1.444-13.2-.501-.764-1.864-.376-2.063-1.65-.132-.846.897-2.354 2.269-1.65.895.459 1.869 6.592 1.856 8.869-.035 6.218-3.68 10.224-7.425 12.169zm-18.15 5.775c-1.15 4.996 6.015 4.675 5.775.619-.109-1.847-1.178-2.952-3.506-2.475-1.442.295-2.13 1.247-2.269 1.856zM95.05 27.769c-14.16-9.307-38.764-5.076-45.994 7.219.499-2.403 1.872-4.779 3.299-7.012 4.317-6.751 11.514-14.115 21.656-14.85 10.853-.787 17.743 6.729 21.039 14.643z"></path><path d="M87.418 71.494c-.114-10.389-5.282-17.452-11.344-23.513-6.513-6.513-16.751-12.137-27.843-9.075-.87.035.003-.317 0-.619 7.003-5.714 15.332-11.902 27.225-11.962 12.203-.063 21.792 7.351 22.688 18.975.818 10.63-4.802 20.842-10.726 26.194z"></path><path d="M52.975 42.619c.771.125-.314.821-.619 1.237-5.28 7.235-11.419 14.906-18.768 20.213-.777-1.768-.838-4.25-.825-6.807 4.137-3.563 7.602-7.798 9.281-13.818 2.92-.928 7.369-1.823 10.931-.825zM60.193 44.682c2.78 1.139 5.157 2.68 7.425 4.331-7.716 10.983-16.427 20.973-27.637 28.463-1.271-1.548-2.507-3.131-3.3-5.156 9.929-7.122 18.994-15.107 23.512-27.638zM72.568 53.551c2.364 1.966 3.934 4.729 5.775 7.218-7.53 10.414-15.438 20.449-26.606 27.226-2.238-1.406-4.26-3.027-6.394-4.538 11.851-7.193 21.912-16.176 27.225-29.906zM81.644 69.638c1.15 1.996 1.231 5.982.825 8.869-1.061 1.136-2.343 1.897-3.507 2.887-3.222 2.74-6.344 5.979-8.25 10.313-2.721.574-6.337.52-9.075 0 7.964-6.062 15.16-12.891 20.007-22.069zM83.293 83.25c-.2 1.473-1.36 5.563 0 7.425-2.467-.196-5.818-.074-7.837 1.237 2.114-3.385 4.916-6.083 7.837-8.662z"></path></g></svg></g></svg>